# xmcd
#
# Track frame offsets: 
#        150
#        52625
#        79175
#        111115
#
# Disc length: 2187 seconds
#
# Revision: 6
# Processed by: cddbd v1.5.2PL0 Copyright (c) Steve Scherf et al.
# Submitted via: ExactAudioCopy v0.99pb4
#
DISCID=23088904
DTITLE=Isaac Hayes - The Isaac Hayes Movement (Hybrid-SACD)
DYEAR=1970
DGENRE=Soul
TTITLE0=I Stand Accused
TTITLE1=One Big Unhappy Family
TTITLE2=I Just Don't Know What To Do With Myself
TTITLE3=Something
EXTD=© 2004\nLabel: Fantasy Inc. (Stax Records]\nSXSA-1010-6\nHybrid-S
EXTD=ACD\nDigitally remastered
EXTT0=
EXTT1=Big Unhappy Family
EXTT2=
EXTT3=
PLAYORDER=
